<?xml version="1.0" encoding="UTF-8" standalone="no"?>
<svg xmlns:rdf="http://www.w3.org/1999/02/22-rdf-syntax-ns#" xmlns="http://www.w3.org/2000/svg" xml:space="preserve" height="242.5" width="242.5" version="1.1" xmlns:cc="http://creativecommons.org/ns#" xmlns:dc="http://purl.org/dc/elements/1.1/"><g transform="matrix(1.25,0,0,-1.25,0,242.5)"><g fill-rule="evenodd"><path d="m0.259766 0.566797h192.756v192.756h-192.756v-192.756z" fill="#fff"/><path d="m123.397 18.4418 7.317 18.1527h-12.209l-7.316-18.1527h12.208" fill="#c9e9d3"/><path d="m135.255 18.4418 7.317 18.1527h-11.892l-7.317-18.1527h11.892" fill="#94d4af"/><path d="m142.715 36.5945h-0.143l-7.317-18.1527h11.894l7.316 18.1527h-11.75" fill="#61c091"/><path d="m154.606 36.5945h-0.141l-7.316-18.1527h11.561l7.318 18.1527h-11.422" fill="#30ac79"/><path d="m166.673 36.5945h-0.645l-7.318-18.1527-0.001-0.0066h15.989v18.1593h-8.025" fill="#009a68"/><path d="m135.009 36.4777c1.101-0.1543 2.281-0.507 3.198-1.3109 1.732-1.5758 1.31-3.7625 0.833-5.0746-1.317-3.6195-5.301-5.6617-7.664-6.0692-1.362-0.2339-2.715-0.3515-4.053-0.3515l-1.886 0.0551-1.937-5.2536h-104.345l-0.0215 59.8985h11.8738l3.0602 4.1265h9.0418l6.0742 4.3426h-12.1891l6.3633 8.191 0.7363-6.3382h9.9258l-2.8742 13.3516h-12.5988l-19.4133-23.3481v55.1771h155.54v-97.39h-39.599l-0.066-0.0063" fill="#231f20"/></g><path d="m135.009 36.4777c1.101-0.1543 2.281-0.507 3.198-1.3109 1.732-1.5758 1.31-3.7625 0.833-5.0746-1.317-3.6195-5.301-5.6617-7.664-6.0692-1.362-0.2339-2.715-0.3515-4.053-0.3515l-1.886 0.0551-1.937-5.2536h-104.345l-0.0215 59.8985h11.8738l3.0602 4.1265h9.0418l6.0742 4.3426h-12.1891l6.3633 8.191 0.7363-6.3382h9.9258l-2.8742 13.3516h-12.5988l-19.4133-23.3481v55.1771h155.54v-97.39h-39.599l-0.066-0.0063z" stroke="#231f20" stroke-miterlimit="2.6131" stroke-width=".04989" fill="none"/><g fill="#231f20" fill-rule="evenodd"><path d="m55.4215 141.297h-8.6996l-2.6621 6.419h-14.5l-2.4243-6.419h-8.5582l13.075 32.423h9.3641l14.4051-32.423zm-18.9692 24.674-4.7519-12.598h9.9816l-5.2297 12.598"/><path d="m87.0266 173.72h7.0359v-32.423h-8.0828v20.253l-8.7473-10.174h-1.2363l-8.7477 10.174v-20.253h-8.082v32.423h7.0352l10.4129-12.029 10.4121 12.029"/><path d="m114.541 173.72c11.836 0 17.923-7.37 17.923-16.259 0-9.318-5.894-16.164-18.826-16.164h-13.407v32.423h14.31zm-6.228-26.48h5.277c8.129 0 10.555 5.515 10.555 10.268 0 5.562-2.996 10.269-10.651 10.269h-5.181v-20.537"/></g><path d="m139.191 175.555 9.757-10.314h15.331v-15.33l10.312-9.756v35.4h-35.4" fill-rule="evenodd" fill="#009a68"/><path d="m148.807 150.05v13.936l-10.313-10.032v-14.217h14.216l10.034 10.313h-13.937" fill-rule="evenodd" fill="#009a68"/><g fill="#fff" fill-rule="evenodd"><path d="m167.59 99.8664h-1.001v0.5106h2.615v-0.5106h-1.002v-2.5633h-0.612v2.5633"/><path d="m172.161 100.377h0.916v-3.0739h-0.596v2.4785l-0.817-2.4785h-0.5l-0.838 2.4785v-2.4785h-0.595v3.0739h0.912l0.761-2.2028 0.757 2.2028"/><path d="m54.2098 87.8551 2.1382-9.6403h-11.0386l-0.2754 2.8016 9.1758 6.8387"/><path d="m103.804 72.8777h-2.996l-1.3771-4.0043h1.9071l0.493 1.4278h1.74c1.497 0 2.205 0.5586 2.325 1.25 0.121 0.684-0.681 1.3265-2.092 1.3265zm-0.504-1.7172h-1.171l0.29 0.8395h1.131c0.271 0 0.531-0.1539 0.466-0.402-0.073-0.2578-0.418-0.4375-0.716-0.4375zm7.688 1.7172h-3.032l-1.376-4.0043h1.908l0.492 1.4278h0.66l0.448-1.4278h2.044l-0.687 1.5536c0.316 0.0625 1.45 0.3382 1.6 1.1613 0.121 0.682-0.642 1.2894-2.057 1.2894zm-0.556-1.7172h-1.155l0.288 0.8395h1.135c0.318 0 0.486-0.2164 0.456-0.3953-0.046-0.2703-0.408-0.4442-0.724-0.4442zm7.664 1.8379c-1.916 0-3.487-0.8957-3.71-2.1246-0.224-1.2328 1.164-2.1199 3.089-2.1199 1.915 0 3.478 0.8871 3.701 2.1199 0.224 1.2289-1.162 2.1246-3.08 2.1246zm1.172-2.1246c-0.111-0.609-0.725-1.1429-1.729-1.1429-1.006 0-1.349 0.5339-1.246 1.1429 0.111 0.6102 0.725 1.145 1.738 1.145 1.005 0 1.349-0.5348 1.237-1.145zm5.394 0c-0.11-0.6793 0.345-1.1429 1.257-1.1429 0.633 0 1.135 0.2289 1.433 0.5773l1.525-0.4875c-0.569-0.5934-1.562-1.0668-3.033-1.0668-1.924 0-3.312 0.8871-3.087 2.1199 0.223 1.2344 1.785 2.1246 3.719 2.1246 1.461 0 2.372-0.475 2.743-1.0629l-1.654-0.4816c-0.149 0.343-0.54 0.5649-1.163 0.5649-0.903 0-1.627-0.4676-1.74-1.145zm6.636 2.0039h4.698l-0.325-0.9601h-2.79l-0.207-0.5723h2.735l-0.306-0.8926h-2.735l-0.215-0.6191h2.793l-0.328-0.9602h-4.705l1.385 4.0043zm8.232-1.0632c-0.027-0.1727 0.158-0.2747 0.688-0.3774 1.405-0.2699 2.252-0.7211 2.02-1.4961-0.243-0.7746-1.276-1.1871-3.043-1.1871-1.628 0-2.336 0.4328-2.652 0.6899l1.165 0.732c0.167-0.1676 0.81-0.5278 1.526-0.5278 0.529 0 0.929 0.0958 0.976 0.2879 0.046 0.2047-0.187 0.3231-0.912 0.4629-1.6 0.293-1.962 0.9106-1.785 1.4649 0.176 0.5574 0.994 1.1347 2.855 1.1347 1.498 0 2.194-0.3304 2.547-0.6136l-1.143-0.6555c-0.28 0.1988-0.847 0.3734-1.349 0.3734-0.55 0-0.865-0.1027-0.893-0.2882zm7.134 0c-0.029-0.1727 0.157-0.2747 0.688-0.3774 1.403-0.2699 2.25-0.7211 2.017-1.4961-0.24-0.7746-1.272-1.1871-3.04-1.1871-1.627 0-2.335 0.4328-2.652 0.6899l1.163 0.732c0.168-0.1676 0.808-0.5278 1.524-0.5278 0.531 0 0.932 0.0958 0.978 0.2879 0.047 0.2047-0.185 0.3231-0.913 0.4629-1.597 0.293-1.963 0.9106-1.786 1.4649 0.177 0.5574 0.996 1.1347 2.856 1.1347 1.5 0 2.195-0.3304 2.549-0.6136l-1.144-0.6555c-0.277 0.1988-0.845 0.3734-1.347 0.3734-0.55 0-0.866-0.1027-0.893-0.2882zm8.192 1.1839c-1.916 0-3.487-0.8957-3.711-2.1246-0.224-1.2328 1.162-2.1199 3.088-2.1199 1.916 0 3.479 0.8871 3.702 2.1199 0.224 1.2289-1.163 2.1246-3.079 2.1246zm1.172-2.1246c-0.111-0.609-0.725-1.1429-1.73-1.1429s-1.349 0.5339-1.246 1.1429c0.111 0.6102 0.725 1.145 1.738 1.145 1.005 0 1.35-0.5348 1.238-1.145zm7.422 2.0039h-3.033l-1.375-4.0043h1.905l0.494 1.4278h0.66l0.446-1.4278h2.046l-0.687 1.5536c0.316 0.0625 1.451 0.3382 1.601 1.1613 0.118 0.682-0.643 1.2894-2.057 1.2894zm-0.559-1.7172h-1.152l0.288 0.8395h1.135c0.317 0 0.482-0.2164 0.455-0.3953-0.046-0.2703-0.408-0.4442-0.726-0.4442zm-45.738 30.9665-7.34-23.6266h-9.077l7.341 23.6266h9.076zm10.342-24.0868c8.482 0 13.69 4.2145 14.434 9.034 0.794 4.7813-3.918 9.0324-12.4 9.0324-8.483 0-13.689-4.2511-14.435-9.0324-0.792-4.8195 3.919-9.034 12.401-9.034zm43.02 12.2575s-1.339-4.2868-3.522-11.7973h-9.077c2.332 7.5457 3.076 9.8125 3.076 9.8125 0.545 1.7719-0.298 2.4445-2.431 2.4445-1.984 0-3.075-0.6019-4.365-1.3457l-3.423-10.9113h-9.077l5.358 17.1098h9.077l-0.595-1.8774c1.637 1.2402 4.117 2.3738 7.985 2.3738 5.555 0 7.887-2.8336 6.994-5.8089zm-101.213-7.1563c1.2399 0 1.9844 0.4242 2.1825 0.5664l-1.3293-4.6406c-1.0414-0.6024-0.9028-1.1684-4.6227-1.1684-5.3074 0-8.1836 2.3008-7.093 5.8793l2.1829 7.2617h-3.9688l1.3887 4.4989h3.9683l1.4379 4.6753h8.9289l-1.4386-4.6753h4.8609l-1.3887-4.4989h-4.8609l-1.9836-6.3402c-0.348-0.9918 0.3469-1.5582 1.7355-1.5582zm32.1427 7.084s-1.34-4.2863-3.5216-11.7969h-9.0773c2.3809 7.5453 3.075 9.8477 3.075 9.8477 0.5461 1.7351-0.2477 2.409-2.4301 2.409-1.984 0-3.0754-0.6016-4.3656-1.3457l-3.3723-10.911h-9.1265l7.391 23.6275h9.0773l-2.6297-8.3947c1.6368 1.2403 4.1668 2.3735 8.036 2.3735 5.5058 0 7.8378-2.834 6.9438-5.8094zm22.088-3.2727c0.397 2.5848 2.282 3.9676 5.058 3.9676 2.68 0 3.919-1.4527 3.522-3.9676-0.397-2.623-2.281-3.9679-5.059-3.9679-2.679 0-3.919 1.4523-3.521 3.9679"/><path d="m114.743 23.2641-1.722 4.1859 4.618 3.768 1.873 5.1664-9.283-7.5383 3.471-8.4391 1.043 2.8571"/><path d="m122.248 38.5992h8.491c1.372 0 3.832 0 5.467-1.4277 1.731-1.5762 1.307-3.7629 0.832-5.0789-1.316-3.6153-5.303-5.6594-7.664-6.0664-1.364-0.2336-2.715-0.3512-4.056-0.3512h-2.023l-2.647-7.3402h-13.746l-2.008 5.4664-6.2167-5.4309h-7.3964l11.4831 9.7965-4.3171 10.4477h8.4181l1.936-5.3161 6.103 5.3161h7.353l-0.009-0.0153"/></g><path d="m126.478 34.427h1c1.06 0 3.02 0 2.194-2.2739-0.838-2.3047-2.845-2.3336-4.153-2.3336h-0.716l1.675 4.6075" fill-rule="evenodd" fill="#231f20"/><path d="m117.639 31.218-5.005-3.3805 2.109-4.5734 2.896 7.9539" fill-rule="evenodd" fill="#231f20"/></g></svg>
